<svg xmlns="http://www.w3.org/2000/svg" xmlns:xlink="http://www.w3.org/1999/xlink" width="4214.844" height="943.182" viewBox="0 0 4214.844 943.182">
  <defs>
    <linearGradient id="linear-gradient" x1="-0.367" y1="0.5" x2="1.305" y2="0.5" gradientUnits="objectBoundingBox">
      <stop offset="0" stop-color="#007fef"/>
      <stop offset="1" stop-color="#00d6da"/>
    </linearGradient>
  </defs>
  <path id="Path_3667" data-name="Path 3667" d="M-2094.993,0h310.724c163.352,0,250.355-85.227,250.355-200.994,0-107.6-77.06-172.585-159.8-176.491v-7.1c75.639-17.045,131.392-70.668,131.392-156.25,0-109.02-80.966-186.435-241.477-186.435h-291.193Zm153.764-125.71V-318.892h128.906c73.864,0,119.673,42.614,119.673,102.628,0,54.688-37.287,90.554-123.224,90.554Zm0-297.23V-602.983H-1824.4c68.182,0,106.889,35.156,106.889,87.713,0,57.528-46.875,92.33-109.73,92.33Zm854.048,190.7c.355,73.153-49.716,111.506-104.048,111.506-57.173,0-94.105-40.128-94.46-104.4V-545.455h-151.278v347.3C-1436.612-70.668-1362.038,7.1-1252.308,7.1c82.031,0,140.98-42.259,165.483-106.179h5.682V0H-935.9V-545.455H-1087.18Zm517.756,448.153c155.895,0,266.69-71.023,266.69-210.582V-545.455H-452.947v91.619h-5.682c-20.242-44.389-64.631-98.722-155.895-98.722-119.673,0-220.881,93.04-220.881,278.764,0,181.463,98.366,265.98,221.236,265.98,87,0,135.653-43.679,155.54-88.778h6.392V3.2c0,74.929-47.94,104.048-113.636,104.048-66.761,0-100.5-29.119-112.926-62.145L-818.715,63.92C-800.6,149.858-716.442,215.909-569.425,215.909Zm3.2-337.358c-74.219,0-114.7-58.949-114.7-153.054,0-92.685,39.773-157.67,114.7-157.67,73.509,0,114.7,62.145,114.7,157.67C-451.527-178.267-493.43-121.449-566.229-121.449ZM-179.155,0H131.57C294.922,0,381.925-85.227,381.925-200.994c0-107.6-77.06-172.585-159.8-176.491v-7.1c75.639-17.045,131.392-70.668,131.392-156.25,0-109.02-80.966-186.435-241.477-186.435H-179.155ZM-25.391-125.71V-318.892H103.516c73.864,0,119.673,42.614,119.673,102.628,0,54.688-37.287,90.554-123.224,90.554Zm0-297.23V-602.983H91.442c68.182,0,106.889,35.156,106.889,87.713,0,57.528-46.875,92.33-109.73,92.33ZM634.411,10.3c80.611,0,132.813-35.156,159.446-85.938h4.261V0H941.584V-367.9c0-129.972-110.085-184.659-231.534-184.659-130.682,0-216.619,62.5-237.571,161.932l139.915,11.364c10.3-36.222,42.614-62.855,96.946-62.855,51.492,0,80.966,25.923,80.966,70.668v2.131c0,35.156-37.287,39.773-132.1,49.006-107.955,9.943-204.9,46.165-204.9,167.969C453.3-44.389,530.362,10.3,634.411,10.3Zm43.324-104.4c-46.52,0-79.9-21.662-79.9-63.21,0-42.614,35.156-63.565,88.423-71.023,33.026-4.616,87-12.429,105.114-24.5v57.884C791.371-137.784,744.141-94.105,677.734-94.105Zm835.227-295.81c-13.494-100.5-94.46-162.642-232.244-162.642-139.56,0-231.534,64.631-231.179,169.744-.355,81.676,51.136,134.588,157.67,155.895l94.46,18.821c47.585,9.588,69.247,26.989,69.958,54.332-.71,32.315-35.867,55.4-88.778,55.4-53.977,0-89.844-23.082-99.077-67.472l-148.793,7.813c14.2,104.4,102.983,168.679,247.514,168.679,141.335,0,242.543-72.088,242.9-179.687-.355-78.835-51.847-126.065-157.67-147.727L1269-336.648c-50.781-11.009-69.6-28.409-69.247-54.687-.355-32.67,36.577-53.977,83.452-53.977,52.557,0,83.807,28.764,91.264,63.92ZM1869.5,10.653c134.943,0,225.852-65.7,247.159-166.9l-139.915-9.233c-15.27,41.548-54.332,63.21-104.758,63.21-75.639,0-123.58-50.071-123.58-131.392v-.355h371.449v-41.548c0-185.369-112.216-276.989-256.392-276.989-160.511,0-264.56,113.991-264.56,282.315C1598.9-97.3,1701.527,10.653,1869.5,10.653ZM1748.4-327.77c3.2-62.145,50.426-111.861,117.543-111.861,65.7,0,111.151,46.875,111.506,111.861Z" transform="translate(2094.993 727.272)" fill="url(#linear-gradient)"/>
</svg>
